<svg version="1.0" xmlns="http://www.w3.org/2000/svg" width="900pt" height="720pt" viewBox="0 0 900 720"><g transform="translate(0.000000,720.000000) scale(0.100000,-0.100000)" fill="#000" stroke="none"><path d="M3750 7049c0-149 18-302 51-433 11-43 19-82 17-86-2-4-55 20-118 54-63 34-222 119-352 189-131 70-242 127-246 127-11 0-30-87-38-176-14-155 47-377 138-507 11-16 18-30 15-33-3-3-38 6-78 21-244 88-615 155-857 155h-113l7-62c23-214 129-420 276-538 59-48 68-48-112-4-108 27-129 28-330 29-226 0-277-7-448-57-70-20-73-22-67-47 14-60 78-171 130-226 31-32 54-59 53-61-2-1-32 4-68 11-178 38-373 27-550-31-58-19-124-45-148-57l-43-23 175-141c125-1e2 172-144 163-150-6-5-84-42-172-82-88-40-164-76-168-80-12-11 71-118 141-183 115-106 246-151 431-150 62 0 109-3 105-7-9-8-370-231-606-375l-116-71 61-8c34-4 95-6 135-3 39 2 72 1 72-3 0-14-214-109-305-136-49-15-140-34-202-42l-112-16 107-120c58-65 123-134 144-152l39-32-93-47c-51-25-102-53-112-61-19-14-19-15-2-34 31-35 158-117 251-164l89-45-69-45c-174-112-379-211-480-231l-60-13 40-25c89-56 229-131 276-147 27-10 52-21 56-24 3-4-41-7-98-7-189 0-295-41-363-138-42-62-46-89-25-178 10-44 19-101 19-128v-50l33 31c51 50 145 102 233 129l81 26 128-22c70-12 134-24 143-27 8-4-28-18-84-33-54-15-114-34-132-44-35-18-68-63-77-106-5-24-15-29-103-50-119-30-218-30-322-2-41 11-76 19-78 17-8-7 63-145 113-221 63-93 122-150 207-197 32-17 58-34 58-37 0-3-26-21-57-40-32-19-104-69-161-111l-103-77 68-26c108-42 107-34 14-131-45-48-80-89-79-91 2-2 46 8 98 21 152 39 189 41 286 15 46-13 84-26 84-31 0-14-124-120-147-125-13-4-23-10-23-14 0-14 83-42 140-47 82-8 91-17 42-42-75-38-159-54-292-55-69-1-154 3-189 7l-65 8 120-101c186-158 297-2e2 459-171 33 6 78 13 1e2 17l40 7-143-150c-78-83-156-156-172-163-17-7-30-16-30-20 0-4 49-19 110-34 81-20 122-26 157-21 185 25 337 117 428 259 19 31 37 56 38 56 2 0 1-56-1-125-4-110-2-134 18-195 13-39 26-72 30-75 18-11 211 170 283 265 92 121 188 316 212 430 7 30 28 59 45 60 3 0 3-74 2-165-3-140-1-165 11-165 8 0 20 7 27 15 26 31 37 17 29-37-13-92-11-218 4-218 32 0 132 32 188 60 34 18 104 70 159 121 94 85 141 112 125 72-39-97-125-396-125-435 0-16 194-4 267 17 110 31 169 104 203 249l17 70 12-64c25-124 50-153 256-293 66-45 122-83 126-85 4-2-2 28-13 65-26 92-21 236 11 307l22 50 32-65c35-69 216-329 229-329 4 0 8 20 8 45 0 52 26 184 44 230l13 30 35-70c68-134 158-229 265-281 48-24 133-44 133-31 0 2-13 33-30 68-37 82-50 162-50 327 0 118 2 132 17 132 27 0 112-97 203-233 47-70 87-126 90-127 9 0 126 219 193 363 36 76 66 140 68 142 2 2 5-56 6-128 2-153 23-251 77-362 36-73 130-205 146-205 13 0 103 103 186 214 101 135 169 250 226 380 31 72 49 104 53 94 16-40-23-479-52-596-3-12-2-22 3-22 20 0 471 215 486 232 21 23 41 91 68 232 11 61 22 111 24 113 2 2 6-25 9-60 15-165 111-294 256-342 25-8 107-28 181-44 74-16 143-32 153-36 11-5 17-2 17 7 0 42 92 223 153 301 40 51 46 39 55-105l7-113 46 70c61 92 115 2e2 154 309l32 89 50-74 51-75 117-52c121-55 232-94 297-106l37-7 17 53c11 35 18 104 21 201l6 149 26-5c14-3 102-18 194-34l168-28 47-87c28-52 53-88 62-88 16 0 93 75 185 180 26 30 64 89 82 130 19 41 36 77 38 78 2 2 41-16 86-39 80-42 193-139 231-199 12-19 17-22 21-10 47 140 81 264 81 3e2.0 25-9 67-19 94l-19 49 28 24c23 20 35 23 74 19 26-3 88-8 137-11 94-6 294-30 371-44 25-5 44-5 42-1-2 5-39 62-83 128-70 105-85 122-123 137-143 57-271 159-352 283-60 91-66 87 108 75 85-6 112-6 112 4 0 12-62 98-89 123-53 49-144 122-199 159-71 48-198 111-224 111-9 0-19 4-22 9-3 4 29 11 72 14 138 11 269 62 356 138 48 43 106 114 106 131 0 4-93 8-206 8h-206l-88 84c-99 93-205 168-289 202-52 21-54 23-31 32 14 5 139 47 278 93 138 46 252 86 252 89 0 3-55 23-122 44-108 35-363 153-428 199l-24 17 65 29c134 60 313 101 448 101h74l-7 31c-16 84-145 233-242 281-72 37-112 48-221 62l-98 12 235 78c129 43 236 80 238 81 1 1-64 24-145 49-81 26-185 59-231 74l-83 27 123 82c147 97 278 211 372 323 55 64 66 84 55 91-38 23-134 34-299 33-142 0-189-4-247-20-40-11-72-19-70-18 1 1 43 29 94 62 129 86 2e2 184 229 321 14 70 18 141 7 141-3 0-141-57-305-126-165-69-301-124-302-122-2 1 45 68 105 148l108 145 1 109v109l-45-42c-57-52-140-105-229-147-87-40-276-106-276-96 0 4 60 67 133 140l132 134-149-7-149-7 7 68c11 99 34 197 68 287 17 43 27 81 24 84-10 11-112-28-258-99-81-40-150-69-153-66-7 7 40 110 86 188 21 36 74 112 118 170 44 58 79 106 77 107-5 6-164-26-211-42-115-40-232-111-321-197l-42-40 19 67c10 37 21 102 25 144l7 76-24-21c-13-11-51-44-83-72-33-28-62-50-64-47-2 2 5 19 17 38 35 58 71 165 71 215 0 99-61 145-195 146l-81 1 23 34c26 39 38 87 37 156-1 66-14 147-23 143-4-2-58-59-121-128-183-2e2-243-262-237-243 4 10 24 70 46 133 22 63 37 117 35 120-3 2-23 3-44 1l-40-3v74c0 41-7 1e2-15 132-16 62-71 174-106 215-19 23-22 24-57 11-59-21-142-78-198-136-44-46-90-124-130-219-5-13-10 24-15 105-3 69-11 145-17 170-25 99-88 260-101 260-10-1-84-109-140-201-63-106-128-244-172-366-18-51-36-93-39-92-3 0-18 28-35 61-37 77-144 191-224 241-34 20-61 34-61 31 0-6-69-324-73-339-2-5-22 23-46 63-136 234-356 447-599 579-42 24-80 43-84 43-5 0-8-64-8-141zM1195 880c-7-11-95-73-95-67 0 5 91 77 97 77 2 0 1-4-2-10z"/></g></svg>