<?xml version="1.0" standalone="no"?>
<!DOCTYPE svg PUBLIC "-//W3C//DTD SVG 20010904//EN"
 "http://www.w3.org/TR/2001/REC-SVG-20010904/DTD/svg10.dtd">
<svg version="1.0" xmlns="http://www.w3.org/2000/svg"
 width="512.000000pt" height="512.000000pt" viewBox="0 0 512.000000 512.000000"
 preserveAspectRatio="xMidYMid meet">
<metadata>
Created by potrace 1.16, written by Peter Selinger 2001-2019
</metadata>
<g transform="translate(0.000000,512.000000) scale(0.100000,-0.100000)"
fill="#000000" stroke="none">
<path d="M2380 4762 l-85 -57 -6 -80 c-4 -44 -19 -127 -33 -184 -15 -57 -25
-105 -23 -108 9 -8 272 -82 294 -83 12 0 48 24 85 56 35 31 72 60 83 64 11 5
79 19 150 31 72 12 131 22 133 24 4 3 -107 12 -264 21 -61 3 -116 9 -122 13
-18 11 -123 314 -117 338 3 13 2 23 -2 22 -5 0 -46 -26 -93 -57z"/>
<path d="M2478 3834 c-139 -138 -170 -164 -190 -160 -12 3 -50 8 -83 11 -55 5
-189 21 -257 30 -16 2 -28 1 -28 -2 0 -3 16 -23 35 -44 19 -22 35 -43 35 -48
0 -4 -73 -30 -162 -56 -90 -26 -191 -56 -225 -66 l-61 -19 -36 -118 c-47 -151
-57 -172 -119 -260 l-52 -74 -140 -65 c-107 -49 -167 -85 -254 -151 -143 -110
-141 -108 -141 -114 0 -3 59 -51 130 -108 72 -56 130 -105 130 -110 0 -6 -169
-63 -250 -85 -14 -3 -34 -10 -45 -15 -54 -23 -88 -30 -100 -20 -7 6 -37 47
-66 91 -35 53 -55 76 -60 67 -3 -7 -25 -97 -48 -199 l-41 -186 0 -266 c0 -146
4 -267 8 -269 16 -6 187 -241 184 -252 -2 -6 0 -8 3 -4 10 9 276 -342 269
-353 -3 -5 -2 -8 3 -7 5 2 27 -15 48 -37 44 -44 92 -85 101 -85 13 0 169 -123
166 -132 -1 -5 1 -7 6 -4 12 7 104 -59 95 -68 -5 -4 -3 -6 4 -4 12 3 68 -36
417 -291 l211 -154 250 27 c698 76 887 99 960 117 44 11 251 69 460 129 209
59 432 123 495 140 63 18 122 38 130 46 8 8 29 37 45 63 17 27 148 223 292
434 144 212 265 396 268 409 3 13 1 88 -5 168 -6 80 -13 209 -17 288 -3 78
-10 142 -15 142 -4 0 -9 -17 -9 -37 -1 -21 -8 27 -15 107 -33 362 -52 595 -48
613 4 22 -44 209 -76 296 -10 30 -17 58 -14 63 3 5 0 7 -6 6 -6 -2 -21 28 -33
66 l-22 69 -61 -65 c-33 -36 -125 -149 -203 -252 -118 -154 -146 -186 -162
-181 -13 4 -58 -16 -142 -63 -67 -38 -162 -91 -212 -117 -84 -45 -325 -211
-325 -225 0 -9 266 -120 288 -120 11 0 76 31 145 70 166 92 164 92 142 49 -21
-39 -359 -542 -379 -561 -7 -7 -80 -26 -162 -42 -82 -16 -153 -32 -158 -36 -5
-5 -1 -29 8 -56 9 -26 16 -53 16 -61 0 -11 -230 -168 -382 -261 l-36 -23 -239
60 c-201 51 -263 71 -398 131 -88 39 -168 80 -179 93 -10 12 -45 76 -78 142
-32 65 -66 127 -75 137 -14 15 -33 18 -130 18 -132 0 -123 14 -72 -120 16 -41
29 -80 29 -87 0 -18 -280 -227 -290 -217 -5 5 -42 86 -83 179 -68 157 -76 180
-91 292 l-17 122 86 192 c47 106 84 193 82 195 -2 2 -52 -6 -112 -16 -59 -11
-111 -18 -114 -15 -3 3 36 47 85 96 91 91 91 91 170 109 43 10 150 31 237 46
l158 28 182 159 c100 88 281 244 402 347 250 214 404 379 382 410 -7 9 -55 64
-108 121 -53 57 -109 119 -124 137 -15 17 -30 32 -33 32 -4 0 -82 -75 -174
-166z m-483 -476 c-8 -24 -83 -293 -88 -318 -4 -14 -28 -50 -55 -80 l-49 -54
-84 66 c-125 97 -124 85 -17 157 51 34 136 102 188 151 93 87 113 102 105 78z"/>
<path d="M3997 3206 c-92 -57 -171 -107 -175 -111 -7 -7 89 -1 218 15 41 5
104 12 140 16 36 3 68 9 72 13 8 8 -68 171 -79 170 -4 0 -84 -47 -176 -103z"/>
</g>
</svg>
